<?xml version="1.0" encoding="UTF-8" standalone="no"?>
<!-- Created with Inkscape (http://www.inkscape.org/) -->

<svg
   width="76.729164mm"
   height="13.229167mm"
   viewBox="0 0 76.729166 13.229167"
   version="1.1"
   id="svg5"
   inkscape:version="1.1.2 (b8e25be8, 2022-02-05)"
   sodipodi:docname="logo.svg"
   xmlns:inkscape="http://www.inkscape.org/namespaces/inkscape"
   xmlns:sodipodi="http://sodipodi.sourceforge.net/DTD/sodipodi-0.dtd"
   xmlns="http://www.w3.org/2000/svg"
   xmlns:svg="http://www.w3.org/2000/svg">
  <sodipodi:namedview
     id="namedview7"
     pagecolor="#ffffff"
     bordercolor="#666666"
     borderopacity="1.0"
     inkscape:pageshadow="2"
     inkscape:pageopacity="0.0"
     inkscape:pagecheckerboard="0"
     inkscape:document-units="mm"
     showgrid="false"
     units="mm"
     inkscape:zoom="3.1788381"
     inkscape:cx="78.330508"
     inkscape:cy="44.35583"
     inkscape:window-width="2560"
     inkscape:window-height="1294"
     inkscape:window-x="2560"
     inkscape:window-y="25"
     inkscape:window-maximized="1"
     inkscape:current-layer="layer1" />
  <defs
     id="defs2" />
  <g
     inkscape:label="Слой 1"
     inkscape:groupmode="layer"
     id="layer1">
    <g
       id="g5387"
       transform="matrix(1.1215035,0,0,1.1215035,-40.280417,-43.168467)"
       style="fill:#373743;fill-opacity:1;stroke:none"
       mask="none">
      <path
         d="m 44.953499,47.617953 q -0.190499,0.285749 -0.465665,0.539749 -0.264582,0.253999 -0.624415,0.444498 -0.349249,0.1905 -0.783164,0.296332 -0.423332,0.116417 -0.93133,0.116417 -0.846664,0 -1.566329,-0.296333 -0.719664,-0.296332 -1.238246,-0.814914 -0.518581,-0.529165 -0.814914,-1.248829 -0.285749,-0.719664 -0.285749,-1.576912 0,-0.857247 0.296333,-1.576911 0.296332,-0.719665 0.814914,-1.238246 0.529165,-0.529165 1.238246,-0.825498 0.719664,-0.296332 1.555745,-0.296332 0.412748,0 0.804331,0.08467 0.402165,0.08467 0.751414,0.243416 0.349249,0.148166 0.634998,0.370416 0.285749,0.211666 0.476248,0.486831 l -0.634998,0.465666 q -0.116416,-0.179916 -0.317499,-0.359833 -0.190499,-0.179916 -0.455082,-0.317499 -0.264582,-0.137582 -0.582081,-0.222249 -0.306916,-0.08467 -0.666748,-0.08467 -0.730248,0 -1.312329,0.264582 -0.571498,0.264583 -0.973664,0.719665 -0.402165,0.444498 -0.613831,1.037163 -0.211666,0.592665 -0.211666,1.248829 0,0.656165 0.211666,1.24883 0.222249,0.592664 0.624415,1.047746 0.402165,0.444499 0.973663,0.709081 0.582082,0.264583 1.301746,0.264583 0.645581,0 1.227663,-0.264583 0.582081,-0.264582 0.973663,-0.846664 z"
         id="path3522"
         style="font-size:10.5833px;line-height:1.25;font-family:'Avenir Next';-inkscape-font-specification:'Avenir Next, Normal';fill:#373743;fill-opacity:1;stroke:none;stroke-width:0.264583" />
      <path
         id="path3524"
         style="font-size:10.5833px;line-height:1.25;font-family:'Avenir Next';-inkscape-font-specification:'Avenir Next, Normal';fill:#373743;fill-opacity:1;stroke:none;stroke-width:0.999999"
         d="m 196.25195,148.12109 c -1.4188,0.0175 -2.87244,0.55602 -3.80664,1.79688 -1.3404,1.78039 -2.60576,3.60517 -4.01953,5.59375 -0.252,-0.0111 -0.50691,-0.0176 -0.76367,-0.0176 -2.10666,0 -4.06558,0.37248 -5.87891,1.11914 -1.78666,0.74667 -3.34831,1.78777 -4.68164,3.1211 -1.30666,1.30666 -2.33341,2.86635 -3.08008,4.67968 -0.74666,1.81333 -1.11914,3.79899 -1.11914,5.95899 0,2.15999 0.37248,4.14761 1.11914,5.96093 0.74667,1.81333 1.77342,3.38543 3.08008,4.71875 1.33333,1.30667 2.89498,2.33342 4.68164,3.08008 1.81333,0.74667 3.77225,1.1211 5.87891,1.1211 2.10666,0 4.05318,-0.37443 5.83984,-1.1211 1.81333,-0.74666 3.37303,-1.77341 4.67969,-3.08008 1.33333,-1.33332 2.37443,-2.90542 3.12109,-4.71875 0.74667,-1.81332 1.11915,-3.80094 1.11915,-5.96093 0,-2.16 -0.37248,-4.14566 -1.11915,-5.95899 -0.0552,-0.13409 -0.11345,-0.26712 -0.17187,-0.39844 0.60339,-1.03126 2.45278,-4.2103 3.45898,-6.17578 0.78571,-1.53475 0.54987,-3.25062 -0.17773,-4.64257 -0.72761,-1.39196 -1.90856,-2.57138 -3.26953,-3.46289 -1.36097,-0.89151 -2.89993,-1.50398 -4.45117,-1.60157 -0.14543,-0.009 -0.29268,-0.0135 -0.43946,-0.0117 z m -0.0723,2.51172 c 0.11107,-0.001 0.22643,0.002 0.34765,0.01 0.96975,0.061 2.17696,0.50265 3.23438,1.19531 1.05742,0.69266 1.96204,1.62668 2.42773,2.51758 0.4657,0.89089 0.53064,1.61996 0.16211,2.33984 -0.66361,1.29627 -1.82315,3.34364 -2.66015,4.79883 -0.45272,-0.63039 -0.95577,-1.21684 -1.50977,-1.75976 -1.30666,-1.33333 -2.86636,-2.37443 -4.67969,-3.1211 -0.72705,-0.30384 -1.48168,-0.54441 -2.26172,-0.72461 1.11972,-1.5847 2.14894,-3.05163 3.21289,-4.46484 0.41151,-0.54658 0.94908,-0.78146 1.72657,-0.79102 z m -8.51758,7.38086 c 1.81333,0 3.44086,0.33334 4.88086,1 1.46666,0.66667 2.70542,1.57404 3.71875,2.72071 1.01333,1.11999 1.78698,2.42659 2.32031,3.91992 0.53333,1.49333 0.80078,3.06542 0.80078,4.71875 0,1.65333 -0.26745,3.22737 -0.80078,4.7207 -0.53333,1.49333 -1.30698,2.79992 -2.32031,3.91992 -1.01333,1.12 -2.25209,2.01303 -3.71875,2.67969 -1.44,0.66667 -3.06753,1 -4.88086,1 -1.81333,0 -3.45326,-0.33333 -4.91992,-1 -1.44,-0.66666 -2.66636,-1.55969 -3.67969,-2.67969 -1.01333,-1.12 -1.78698,-2.42659 -2.32031,-3.91992 -0.53333,-1.49333 -0.80078,-3.06737 -0.80078,-4.7207 0,-1.65333 0.26745,-3.22542 0.80078,-4.71875 0.53333,-1.49333 1.30698,-2.79993 2.32031,-3.91992 1.01333,-1.14667 2.23969,-2.05404 3.67969,-2.72071 1.46666,-0.66666 3.10659,-1 4.91992,-1 z"
         transform="scale(0.26458333)" />
      <path
         d="m 60.453733,47.713203 h 0.02117 v -6.38173 h 0.761998 v 7.492976 H 60.2844 L 55.924081,42.37922 h -0.02117 v 6.445229 h -0.761998 v -7.492976 h 0.952497 z"
         id="path3526"
         style="font-size:10.5833px;line-height:1.25;font-family:'Avenir Next';-inkscape-font-specification:'Avenir Next, Normal';fill:#373743;fill-opacity:1;stroke:none;stroke-width:0.264583" />
      <path
         d="m 68.535901,47.713203 h 0.02117 v -6.38173 h 0.761998 v 7.492976 h -0.952497 l -4.36032,-6.445229 h -0.02117 v 6.445229 h -0.761997 v -7.492976 h 0.952497 z"
         id="path3528"
         style="font-size:10.5833px;line-height:1.25;font-family:'Avenir Next';-inkscape-font-specification:'Avenir Next, Normal';fill:#373743;fill-opacity:1;stroke:none;stroke-width:0.264583" />
      <path
         d="m 72.067251,48.147118 h 4.011071 v 0.677331 h -4.773068 v -7.492976 h 4.646068 v 0.677331 h -3.884071 v 2.582326 h 3.630072 v 0.666747 h -3.630072 z"
         id="path3530"
         style="font-size:10.5833px;line-height:1.25;font-family:'Avenir Next';-inkscape-font-specification:'Avenir Next, Normal';fill:#373743;fill-opacity:1;stroke:none;stroke-width:0.264583" />
      <path
         d="m 83.876065,47.617953 q -0.1905,0.285749 -0.465666,0.539749 -0.264582,0.253999 -0.624414,0.444498 -0.349249,0.1905 -0.783164,0.296332 -0.423332,0.116417 -0.931331,0.116417 -0.846664,0 -1.566328,-0.296333 -0.719664,-0.296332 -1.238246,-0.814914 -0.518582,-0.529165 -0.814914,-1.248829 -0.285749,-0.719664 -0.285749,-1.576912 0,-0.857247 0.296332,-1.576911 0.296332,-0.719665 0.814914,-1.238246 0.529165,-0.529165 1.238246,-0.825498 0.719665,-0.296332 1.555745,-0.296332 0.412749,0 0.804331,0.08467 0.402165,0.08467 0.751414,0.243416 0.349249,0.148166 0.634998,0.370416 0.285749,0.211666 0.476249,0.486831 l -0.634998,0.465666 q -0.116417,-0.179916 -0.317499,-0.359833 -0.1905,-0.179916 -0.455082,-0.317499 -0.264583,-0.137582 -0.582082,-0.222249 -0.306915,-0.08467 -0.666747,-0.08467 -0.730248,0 -1.31233,0.264582 -0.571498,0.264583 -0.973663,0.719665 -0.402166,0.444498 -0.613832,1.037163 -0.211666,0.592665 -0.211666,1.248829 0,0.656165 0.211666,1.24883 0.22225,0.592664 0.624415,1.047746 0.402166,0.444499 0.973664,0.709081 0.582081,0.264583 1.301746,0.264583 0.645581,0 1.227662,-0.264583 0.582082,-0.264582 0.973664,-0.846664 z"
         id="path3532"
         style="font-size:10.5833px;line-height:1.25;font-family:'Avenir Next';-inkscape-font-specification:'Avenir Next, Normal';fill:#373743;fill-opacity:1;stroke:none;stroke-width:0.264583" />
      <path
         d="m 87.536234,48.824449 h -0.761998 v -6.815645 h -2.508242 v -0.677331 h 5.778482 v 0.677331 h -2.508242 z"
         id="path3534"
         style="font-size:10.5833px;line-height:1.25;font-family:'Avenir Next';-inkscape-font-specification:'Avenir Next, Normal';fill:#373743;fill-opacity:1;stroke:none;stroke-width:0.264583" />
    </g>
  </g>
</svg>
